HIERARCHY
ROOT Hips
{
  OFFSET -26.5434 98.0092 -190.819
  CHANNELS 6 Xposition Yposition Zposition Zrotation Xrotation Yrotation
  JOINT Spine
  {
    OFFSET 0 11.8905 0
    CHANNELS 3 Zrotation Xrotation Yrotation
    JOINT Spine1
    {
      OFFSET 0 25.6574 0.127663
      CHANNELS 3 Zrotation Xrotation Yrotation
      JOINT HEad
      {
        OFFSET 0 8.73416 0.011341
        CHANNELS 3 Zrotation Xrotation Yrotation
        End Site
        {
          OFFSET -0.29 12.7742 2.51395
        }
      }
      JOINT LeftShoulder1
      {
        OFFSET 8.99 -0.362252 -0.22
        CHANNELS 3 Zrotation Xrotation Yrotation
        JOINT LeftArm
        {
          OFFSET 10.2827 -0.00338 0.322123
          CHANNELS 3 Zrotation Xrotation Yrotation
          JOINT LeftForeArm
          {
            OFFSET 32.7669 0.099144 -1.42434
            CHANNELS 3 Zrotation Xrotation Yrotation
            JOINT LeftHand
            {
              OFFSET 27.5643 0.085362 1.02216
              CHANNELS 3 Zrotation Xrotation Yrotation
              End Site
              {
                OFFSET 16.7443 -0.6 1.50291
              }
            }
          }
        }
      }
      JOINT RightShoulder
      {
        OFFSET -8.99 -0.362252 -0.22
        CHANNELS 3 Zrotation Xrotation Yrotation
        JOINT RightArm
        {
          OFFSET -10.2827 -0.00338 0.322123
          CHANNELS 3 Zrotation Xrotation Yrotation
          JOINT RightForeArm
          {
            OFFSET -32.8971 0.099144 -1.42434
            CHANNELS 3 Zrotation Xrotation Yrotation
            JOINT RightHand
            {
              OFFSET -27.4921 0.085362 1.02216
              CHANNELS 3 Zrotation Xrotation Yrotation
              End Site
              {
                OFFSET -16.6312 -0.6 1.50291
              }
            }
          }
        }
      }
    }
  }
  JOINT RightUpLeg
  {
    OFFSET -8.9458 -8.66707 0.101652
    CHANNELS 3 Zrotation Xrotation Yrotation
    JOINT RightLeg
    {
      OFFSET 0 -44.4227 1.3727
      CHANNELS 3 Zrotation Xrotation Yrotation
      JOINT RightFoot
      {
        OFFSET 0.253549 -42.0924 -1.46059
        CHANNELS 3 Zrotation Xrotation Yrotation
        JOINT RightToes
        {
          OFFSET 0.04 -4.41509 8.4991
          CHANNELS 3 Zrotation Xrotation Yrotation
          End Site
          {
            OFFSET -0.08 -0.137448 9.77979
          }
        }
      }
    }
  }
  JOINT LeftUpLeg
  {
    OFFSET 8.9458 -8.66707 0.101652
    CHANNELS 3 Zrotation Xrotation Yrotation
    JOINT LeftLeg
    {
      OFFSET 0 -44.4227 1.3727
      CHANNELS 3 Zrotation Xrotation Yrotation
      JOINT LeftFoot
      {
        OFFSET 0.663169 -41.9567 -1.41433
        CHANNELS 3 Zrotation Xrotation Yrotation
        JOINT LeftToes
        {
          OFFSET -0.04 -4.41509 8.4991
          CHANNELS 3 Zrotation Xrotation Yrotation
          End Site
          {
            OFFSET 0.08 -0.047448 9.77979
          }
        }
      }
    }
  }
}
MOTION
Frames:	19
Frame Time:	0.0166667
-23.9729 99.7358 -190.333 6.65767 1.5825 120.885 5.45618 10.0396 4.46054 0.00289116 0.0331116 -0.0174623 -34.2444 25.0451 41.4776 2.98177e-016 -6.95746e-016 -3.18055e-015 168.716 -68.4219 -165.291 -97.0183 57.3372 -41.2376 10.1871 17.0685 -4.21085 15.9961 9.52128 4.37728 81.61 -16.1593 80.7132 52.538 52.7238 64.5221 -5.24073 22.7567 -3.77283 -18.2609 8.10088 -1.84383 15.02 17.0741 0.749791 -3.84862 -2.64516 -0.349499 0.0462048 0.000533403 0.662642 20.1473 -16.6967 15.6241 5.53856 13.2944 -11.6459 -22.9325 -3.39437 -1.45728 7.3418e-008 1.56035e-007 -4.88727e-009 
-23.8873 99.1726 -190.06 6.8627 1.75929 121.134 5.40301 10.5745 4.23362 0.00288147 0.00553038 -0.00414349 -33.3356 23.937 40.1374 1.2921e-015 0 -9.54166e-015 173.471 -66.0734 -160.07 -102.825 57.3985 -35.1337 16.9481 12.2867 -10.2283 12.9275 10.5394 -1.39889 86.5022 -12.667 82.7913 52.1589 52.7344 64.6297 -2.88804 28.068 -10.2757 -18.3399 8.39453 -1.80941 17.2578 17.0676 -1.5774 -9.01836 -2.73031 -0.582356 0.0462048 0.000533403 0.662642 20.5272 -16.3743 14.8465 4.66117 14.2226 -9.11002 -23.2119 -3.23213 -1.4034 7.3418e-008 1.56035e-007 -4.88727e-009 
-23.8157 98.7233 -189.76 7.10852 2.00242 121.382 5.34217 11.1537 3.9474 0.00288124 0.00201046 -0.00496364 -32.0753 22.5477 38.4918 8.94531e-016 5.46658e-016 3.18055e-015 178.569 -62.5454 -154.422 -110.428 56.9885 -27.3602 21.9267 11.3583 -12.6291 10.684 11.4007 -5.87263 91.0138 -11.6116 84.0328 51.6374 52.8841 64.8966 1.76774 34.0632 -17.5893 -18.4661 8.36408 -1.66972 19.7193 17.2592 -4.56986 -14.4575 -2.70249 -0.880955 0.0462048 0.000533403 0.662642 21.04 -16.1802 13.7096 3.31107 16.1247 -5.1211 -23.3278 -3.06523 -1.35962 7.3418e-008 1.56035e-007 -4.88729e-009 
-23.7822 98.329 -189.348 7.3908 2.46934 121.602 5.09783 11.8775 3.49492 0.00288149 0.00139106 -0.0173236 -29.6549 20.2768 35.8695 5.96354e-016 -8.44835e-016 -0 -174.89 -55.5813 -147.251 -121.366 55.9489 -16.8914 24.4867 18.3067 -7.18469 10.2208 11.0599 -6.86761 95.421 -17.2639 85.4872 50.5567 53.5965 65.3473 12.4263 41.3685 -22.9288 -18.634 7.27324 -1.20724 23.4083 18.2251 -9.87545 -21.1208 -2.61802 -1.29068 0.0462048 0.000533403 0.662642 22.0859 -16.7203 11.7316 0.254038 20.9363 3.08841 -23.3117 -2.70977 -1.19992 7.3418e-008 1.56035e-007 -4.88728e-009 
-23.8648 98.0034 -188.775 7.69323 3.14999 121.755 4.63729 12.7195 2.9395 0.00288159 0.00172161 -0.0173836 -26.3746 17.1486 32.5519 2.23633e-016 8.94531e-016 3.18055e-015 -169.814 -46.3712 -141.647 -126.779 53.5725 -6.90096 31.5518 8.89131 -25.3644 9.78453 10.7022 -7.63577 101.668 -23.7197 89.5262 49.1452 55.0418 65.2087 9.64506 26.5883 -11.3785 -18.9318 5.37576 -0.323901 27.8084 19.371 -17.0742 -28.5408 -2.2769 -1.75225 0.0462048 0.000533403 0.662642 23.5588 -18.5477 9.4757 -5.07994 27.8682 14.4035 -22.617 -2.42198 -1.03871 7.3418e-008 1.56035e-007 -4.88727e-009 
-24.0844 97.7842 -188.085 8.07092 6.08498 121.694 2.20306 14.8144 2.39127 0.00288162 0.00200146 -0.0157836 -22.4993 13.1573 28.7955 7.76503e-017 -6.18096e-016 -6.36111e-015 -166.303 -35.9943 -137.844 -128.669 50.7342 2.29324 29.4836 19.918 -8.27722 9.19832 10.3654 -8.01544 106.442 -26.8556 92.5725 38.8297 56.7973 71.8803 22.5583 41.3576 -15.9764 -21.5802 5.00169 1.21173 32.6963 19.3188 -24.6926 -36.536 -1.748 -2.14772 0.0462048 0.000533403 0.662642 23.5427 -20.5622 7.28379 -13.5912 35.7333 28.6249 -20.8842 -2.07639 -0.830754 7.3418e-008 1.56035e-007 -4.88728e-009 
-24.4694 97.8004 -187.403 8.45491 10.8083 121.172 -1.95767 18.6089 1.14561 0.00299772 0.0650995 -0.10267 -18.4659 7.14654 25.6857 -9.93923e-017 -9.93923e-016 -6.36111e-015 -165.808 -28.7548 -138.324 -129.442 48.6326 7.28446 33.7222 14.4003 -19.6373 8.27383 9.40383 -6.7263 109.623 -27.5672 94.5382 21.909 57.7391 85.2837 15.8633 17.6799 -2.93178 -27.4886 5.54459 3.97665 37.2976 19.1498 -32.1117 -31.8291 -1.62746 -1.60144 0.0462048 0.000533403 0.662642 21.9628 -22.4385 6.01534 -25.091 42.7313 45.6 -17.5379 -1.45551 -0.451191 7.3418e-008 1.56035e-007 -4.88728e-009 
-25.016 97.7919 -186.758 8.91743 16.8494 119.887 -7.57644 22.4468 0.751659 0.00288142 0.00312059 -0.00641359 -14.2283 1.19858 22.6079 -9.93923e-017 -1.09332e-015 -1.27222e-014 -165.457 -24.5436 -139.422 -129.293 47.3699 10.2647 31.82 20.3606 -9.27852 7.64983 9.0224 -5.51519 108.827 -23.2316 95.6476 8.09345 55.6808 92.8532 24.1783 39.6011 4.94097 -34.9779 6.74051 8.00255 41.984 17.6219 -38.1306 -27.97 -1.81378 -1.40101 0.0462048 0.000533403 0.662642 19.2601 -23.6042 6.36043 -36.7715 47.8036 64.2947 -14.3833 -0.852132 -0.249734 7.3418e-008 1.56035e-007 -4.88728e-009 
-25.6611 97.6578 -186.296 9.52132 21.9028 118.548 -12.309 25.2261 0.387302 0.00288097 0.00301982 0.00199639 -10.0129 -4.77714 19.546 -4.96962e-016 3.97569e-016 -0 -160.506 -24.134 -139.978 -122.099 48.5844 6.27425 34.4877 17.0696 -16.0338 6.89008 9.01526 -4.00668 105.563 -16.2574 95.8557 -2.84336 52.3677 96.3109 14.3384 10.7589 22.0858 -41.7985 7.59354 12.0205 45.1453 16.7665 -42.4955 -22.6858 -1.8686 -1.08293 0.0462048 0.000533403 0.662642 16.924 -24.6981 7.92753 -45.2955 51.4962 79.3311 -11.722 -0.390199 -0.19301 7.3418e-008 1.56035e-007 -4.88728e-009 
-26.3002 97.3331 -186.017 10.2395 26.0848 117.123 -16.0816 27.1086 -0.0522743 0.00288752 0.00759934 0.00703833 -6.58957 -9.78945 17.4655 3.47873e-016 9.19379e-016 -3.18055e-015 -153.42 -27.3762 -139.617 -110.163 50.9159 -2.92654 33.1719 20.6226 -9.27054 5.68122 9.33646 -2.08176 101.123 -8.17963 95.7958 -7.50424 50.2086 97.9135 21.316 18.9486 18.0767 -47.8326 8.02077 15.8812 47.3969 16.2891 -45.5982 -16.7275 -1.87554 -0.762401 0.0462048 0.000533403 0.662642 14.473 -25.5127 10.4218 -48.4639 56.2259 87.0935 -10.7571 -0.190152 -0.290211 7.3418e-008 1.56035e-007 -4.88728e-009 
-26.7715 97.0453 -186.065 11.5331 30.8825 113.602 -20.7636 28.4208 1.48105 0.160804 -0.074732 0.00269034 -3.92564 -13.8386 16.0737 -4.96962e-016 -7.95139e-016 -0 -145.353 -33.3778 -137.727 -90.3898 53.6345 -16.0983 36.2564 30.4483 -3.46693 3.82778 9.87313 0.152309 96.3302 0.289584 96.0253 -7.50722 48.4948 97.1365 16.6474 14.6336 9.78557 -54.5626 7.55821 21.2327 49.3964 14.2987 -46.1559 -12.0329 -1.95701 -0.523197 0.0462048 0.000533403 0.662642 10.7445 -24.4149 14.2494 -42.8468 62.2663 82.5151 -28.5364 1.28658 0.705779 7.3418e-008 1.56035e-007 -4.88727e-009 
-27.1165 96.8632 -186.129 13.0091 34.888 110.082 -24.3495 28.9649 2.66121 0.318738 -0.155813 -0.000621564 -2.02795 -16.9977 15.1455 3.97569e-016 -1.39149e-015 -0 -136.088 -41.0089 -133.103 -65.4819 51.9648 -32.546 30.4264 15.5355 -12.2938 1.41563 10.5046 2.69801 91.6568 8.76989 96.714 -4.51389 47.0022 94.2586 23.1312 22.5352 1.58467 -60.5456 6.74799 25.8754 51.3802 11.4017 -44.9766 -8.47724 -2.21527 -0.240225 0.0462048 0.000533403 0.662642 7.52363 -24.7827 18.8866 -26.8254 68.636 66.1715 -41.8383 1.96927 2.2839 7.3418e-008 1.56035e-007 -4.88728e-009 
-27.384 97.1767 -186.052 14.6045 38.3085 106.535 -26.9942 28.975 3.54981 0.472517 -0.236631 -0.00690063 -0.892909 -19.3784 14.5157 7.95139e-016 1.98785e-016 -3.18055e-015 -124.258 -48.908 -124.031 -43.2032 43.947 -45.5572 29.05 28.5063 1.56024 -1.41288 11.1143 5.47965 87.798 17.0412 97.9296 0.646639 45.5875 89.6549 20.8246 13.4466 8.95281 -65.3387 5.9795 29.7684 51.8222 9.33517 -43.3163 -4.09964 -2.03687 -0.0518034 0.0462048 0.000533403 0.662642 5.33733 -27.946 24.6584 -2.40701 69.8204 42.7065 -32.2989 4.31046 3.34239 7.3418e-008 1.56035e-007 -4.88728e-009 
-27.6039 97.7141 -185.82 16.3042 41.2841 102.961 -28.8849 28.6379 4.21397 0.619174 -0.321657 -0.0139068 -0.450391 -21.0771 14.0941 -3.97569e-015 1.19271e-015 -3.18055e-015 -107.656 -55.1954 -108.184 -27.4038 31.0956 -51.8676 28.1085 21.7527 -15.2564 -4.31879 11.7537 8.03879 85.4148 21.7451 99.1492 3.98473 43.9674 86.7117 23.6686 23.6366 0.22691 -68.3726 5.46267 32.218 50.5024 8.55204 -41.446 0.68276 -1.78796 0.100605 0.0462048 0.000533403 0.662642 4.45054 -30.81 30.286 17.5657 66.7043 25.1848 -31.7853 5.14304 4.58309 7.3418e-008 1.56035e-007 -4.88728e-009 
-27.7615 98.3702 -185.42 18.1205 43.885 99.3755 -30.1668 28.1058 4.69488 0.767958 -0.408244 -0.0213099 -1.72145 -21.0689 13.7129 1.59028e-015 0 -0 -86.1453 -57.1523 -85.4661 -16.5184 15.4179 -52.9072 18.1658 21.4355 4.1532 -7.16721 12.4894 10.2034 83.9972 24.6983 100.023 6.07229 42.7059 84.8641 22.819 20.755 0.768436 -69.9803 5.21675 33.3419 47.7532 8.85924 -39.4611 5.72913 -1.51407 0.209025 0.0462048 0.000533403 0.662642 5.24449 -33.863 35.8435 31.0801 62.0046 14.6088 -31.7463 6.05222 5.37021 7.3418e-008 1.56035e-007 -4.88728e-009 
-27.8615 99.0051 -184.867 20.0771 46.1273 95.7961 -30.9606 27.504 5.02867 0.919541 -0.493613 -0.0287948 -4.42166 -19.6694 13.5028 -1.10348e-032 -3.97569e-016 -1.59028e-015 -66.2762 -53.248 -62.454 -8.52185 -1.8616 -50.6876 14.8918 11.7202 -10.446 -9.89391 13.3807 12.0414 83.1785 26.8613 100.461 7.27465 42.1089 83.7448 24.4726 25.2021 -2.39602 -70.4346 5.12582 33.2686 43.8875 10.1485 -37.3663 10.9405 -1.2297 0.275171 0.0462048 0.000533403 0.662642 7.83417 -36.7286 41.2029 39.9911 56.5 7.52045 -31.9117 6.62248 5.84539 7.3418e-008 1.56035e-007 -4.88728e-009 
-27.8826 99.5294 -184.241 22.2133 47.9902 92.2218 -31.6198 28.1023 5.49177 1.0597 -0.484535 -0.0377194 -8.17345 -18.3625 13.3095 -4.41391e-032 -7.95139e-016 -3.18055e-015 -54.9872 -45.5134 -46.8675 -3.42522 -19.8861 -46.8564 9.60169 18.0508 2.85051 -12.0186 13.1671 13.192 82.6216 28.7284 100.381 7.81387 42.1251 83.1521 16.5349 9.89368 14.6163 -69.9718 5.0667 32.1548 39.2023 12.3407 -35.0277 16.3147 -0.946219 0.305213 0.0462048 0.000533403 0.662642 12.0265 -38.9755 46.2681 46.3126 50.2435 0.44255 -32.4007 6.67565 6.07983 7.3418e-008 1.56035e-007 -4.88727e-009 
-27.8244 99.941 -183.648 24.5359 49.4386 88.6489 -31.8169 28.5396 5.83336 1.23234 -0.673252 -0.0423876 -12.7912 -15.5478 13.6212 3.18055e-015 0 -1.59028e-015 -49.3732 -35.8885 -35.209 -2.31991 -38.3688 -44.0886 3.82745 12.7871 -16.6921 -13.6411 13.3062 14.3022 82.1961 30.3478 99.639 7.87668 42.5555 82.9323 20.481 18.0426 10.6217 -68.8327 4.93314 30.1047 33.877 15.297 -32.1855 21.8261 -0.628659 0.294142 0.0462048 0.000533403 0.662642 17.561 -40.6245 50.7911 48.423 43.9539 -4.50056 -28.5999 6.59459 5.65291 7.3418e-008 1.56035e-007 -4.88728e-009 
-27.7094 100.275 -183.254 26.9774 50.4557 85.105 -31.5013 28.8115 6.09786 1.39239 -0.768811 -0.0477144 -17.193 -12.9335 14.0766 3.18055e-015 -1.59028e-015 -1.59028e-015 -47.954 -29.0852 -29.0749 -5.75974 -54.1272 -42.3671 7.37663 14.3231 -1.20781 -14.5721 13.3474 15.1707 81.8679 31.891 98.2815 7.64382 43.1825 83.3945 16.1846 14.7279 13.148 -67.9513 4.6887 28.2924 28.9054 17.933 -29.3677 27.3856 -0.277271 0.271656 0.0462048 0.000533403 0.662642 24.3556 -40.8079 54.4393 47.1866 38.6054 -7.45797 -33.0818 3.94947 6.80251 7.3418e-008 1.56035e-007 -4.88728e-009 
